<svg width="85" height="57" viewBox="0 0 85 57" fill="none" xmlns="http://www.w3.org/2000/svg">
<path d="M4.70833 56.5H80.0417C82.6313 56.5 84.75 54.3813 84.75 51.7917C84.75 49.2021 82.6313 47.0833 80.0417 47.0833H4.70833C2.11875 47.0833 0 49.2021 0 51.7917C0 54.3813 2.11875 56.5 4.70833 56.5ZM4.70833 32.9583H80.0417C82.6313 32.9583 84.75 30.8396 84.75 28.25C84.75 25.6604 82.6313 23.5417 80.0417 23.5417H4.70833C2.11875 23.5417 0 25.6604 0 28.25C0 30.8396 2.11875 32.9583 4.70833 32.9583ZM0 4.70833C0 7.29792 2.11875 9.41667 4.70833 9.41667H80.0417C82.6313 9.41667 84.75 7.29792 84.75 4.70833C84.75 2.11875 82.6313 0 80.0417 0H4.70833C2.11875 0 0 2.11875 0 4.70833Z" fill="white"/>
</svg>
