<svg width="70" height="70" viewBox="0 0 70 70" fill="none" xmlns="http://www.w3.org/2000/svg">
<rect width="70" height="70" rx="15" fill="#0057FF"/>
<path d="M34.5 18C38.983 18 39.5424 18.0165 41.3013 18.099C43.0585 18.1815 44.2548 18.4571 45.3075 18.8663C46.3965 19.2854 47.3139 19.8529 48.2313 20.7687C49.0703 21.5935 49.7195 22.5913 50.1338 23.6925C50.5413 24.7435 50.8185 25.9414 50.901 27.6987C50.9785 29.4576 51 30.0169 51 34.5C51 38.983 50.9835 39.5424 50.901 41.3013C50.8185 43.0585 50.5413 44.2548 50.1338 45.3075C49.7207 46.4093 49.0714 47.4073 48.2313 48.2313C47.4062 49.07 46.4086 49.7192 45.3075 50.1338C44.2564 50.5413 43.0585 50.8185 41.3013 50.901C39.5424 50.9785 38.983 51 34.5 51C30.0169 51 29.4576 50.9835 27.6987 50.901C25.9414 50.8185 24.7452 50.5413 23.6925 50.1338C22.5908 49.7204 21.5929 49.0711 20.7687 48.2313C19.9295 47.4066 19.2803 46.4088 18.8663 45.3075C18.4571 44.2564 18.1815 43.0585 18.099 41.3013C18.0214 39.5424 18 38.983 18 34.5C18 30.0169 18.0165 29.4576 18.099 27.6987C18.1815 25.9398 18.4571 24.7452 18.8663 23.6925C19.2791 22.5906 19.9285 21.5926 20.7687 20.7687C21.5932 19.9292 22.591 19.28 23.6925 18.8663C24.7452 18.4571 25.9398 18.1815 27.6987 18.099C29.4576 18.0214 30.0169 18 34.5 18ZM34.5 26.25C32.312 26.25 30.2135 27.1192 28.6664 28.6664C27.1192 30.2135 26.25 32.312 26.25 34.5C26.25 36.688 27.1192 38.7865 28.6664 40.3336C30.2135 41.8808 32.312 42.75 34.5 42.75C36.688 42.75 38.7865 41.8808 40.3336 40.3336C41.8808 38.7865 42.75 36.688 42.75 34.5C42.75 32.312 41.8808 30.2135 40.3336 28.6664C38.7865 27.1192 36.688 26.25 34.5 26.25ZM45.225 25.8375C45.225 25.2905 45.0077 24.7659 44.6209 24.3791C44.2341 23.9923 43.7095 23.775 43.1625 23.775C42.6155 23.775 42.0909 23.9923 41.7041 24.3791C41.3173 24.7659 41.1 25.2905 41.1 25.8375C41.1 26.3845 41.3173 26.9091 41.7041 27.2959C42.0909 27.6827 42.6155 27.9 43.1625 27.9C43.7095 27.9 44.2341 27.6827 44.6209 27.2959C45.0077 26.9091 45.225 26.3845 45.225 25.8375ZM34.5 29.55C35.8128 29.55 37.0719 30.0715 38.0002 30.9998C38.9285 31.9281 39.45 33.1872 39.45 34.5C39.45 35.8128 38.9285 37.0719 38.0002 38.0002C37.0719 38.9285 35.8128 39.45 34.5 39.45C33.1872 39.45 31.9281 38.9285 30.9998 38.0002C30.0715 37.0719 29.55 35.8128 29.55 34.5C29.55 33.1872 30.0715 31.9281 30.9998 30.9998C31.9281 30.0715 33.1872 29.55 34.5 29.55Z" fill="#D8D8D8"/>
</svg>
