<svg width="33" height="33" viewBox="0 0 33 33" fill="none" xmlns="http://www.w3.org/2000/svg">
<path d="M16.5 0C20.983 0 21.5424 0.0164999 23.3013 0.0989999C25.0585 0.1815 26.2548 0.45705 27.3075 0.86625C28.3965 1.28535 29.3139 1.85295 30.2313 2.7687C31.0703 3.59353 31.7195 4.59127 32.1338 5.6925C32.5413 6.74355 32.8185 7.94145 32.901 9.6987C32.9785 11.4576 33 12.0169 33 16.5C33 20.983 32.9835 21.5424 32.901 23.3013C32.8185 25.0585 32.5413 26.2548 32.1338 27.3075C31.7207 28.4093 31.0714 29.4073 30.2313 30.2313C29.4062 31.07 28.4086 31.7192 27.3075 32.1338C26.2564 32.5413 25.0585 32.8185 23.3013 32.901C21.5424 32.9785 20.983 33 16.5 33C12.0169 33 11.4576 32.9835 9.6987 32.901C7.94145 32.8185 6.7452 32.5413 5.6925 32.1338C4.59084 31.7204 3.59292 31.0711 2.7687 30.2313C1.92952 29.4066 1.28029 28.4088 0.86625 27.3075C0.45705 26.2564 0.1815 25.0585 0.0989999 23.3013C0.0214499 21.5424 0 20.983 0 16.5C0 12.0169 0.0164999 11.4576 0.0989999 9.6987C0.1815 7.9398 0.45705 6.7452 0.86625 5.6925C1.27914 4.5906 1.92853 3.59258 2.7687 2.7687C3.59316 1.92923 4.59101 1.27995 5.6925 0.86625C6.7452 0.45705 7.9398 0.1815 9.6987 0.0989999C11.4576 0.0214499 12.0169 0 16.5 0ZM16.5 8.25C14.312 8.25 12.2135 9.11919 10.6664 10.6664C9.11919 12.2135 8.25 14.312 8.25 16.5C8.25 18.688 9.11919 20.7865 10.6664 22.3336C12.2135 23.8808 14.312 24.75 16.5 24.75C18.688 24.75 20.7865 23.8808 22.3336 22.3336C23.8808 20.7865 24.75 18.688 24.75 16.5C24.75 14.312 23.8808 12.2135 22.3336 10.6664C20.7865 9.11919 18.688 8.25 16.5 8.25ZM27.225 7.8375C27.225 7.29049 27.0077 6.76589 26.6209 6.37909C26.2341 5.9923 25.7095 5.775 25.1625 5.775C24.6155 5.775 24.0909 5.9923 23.7041 6.37909C23.3173 6.76589 23.1 7.29049 23.1 7.8375C23.1 8.38451 23.3173 8.90911 23.7041 9.29591C24.0909 9.6827 24.6155 9.9 25.1625 9.9C25.7095 9.9 26.2341 9.6827 26.6209 9.29591C27.0077 8.90911 27.225 8.38451 27.225 7.8375ZM16.5 11.55C17.8128 11.55 19.0719 12.0715 20.0002 12.9998C20.9285 13.9281 21.45 15.1872 21.45 16.5C21.45 17.8128 20.9285 19.0719 20.0002 20.0002C19.0719 20.9285 17.8128 21.45 16.5 21.45C15.1872 21.45 13.9281 20.9285 12.9998 20.0002C12.0715 19.0719 11.55 17.8128 11.55 16.5C11.55 15.1872 12.0715 13.9281 12.9998 12.9998C13.9281 12.0715 15.1872 11.55 16.5 11.55Z" fill="#D8D8D8"/>
</svg>
