<svg width="70" height="70" viewBox="0 0 70 70" fill="none" xmlns="http://www.w3.org/2000/svg">
<rect width="70" height="70" rx="15" fill="#0057FF"/>
<path d="M47.5918 36.0198C46.9631 34.8511 45.189 33.867 42.8312 35.5277C39.62 37.865 34.5 37.865 34.5 37.865C34.5 37.865 29.38 37.865 26.1688 35.5277C23.811 33.867 22.0369 34.8511 21.4082 36.0198C20.2854 38.07 21.5429 39.0746 24.3948 40.7353C26.8425 42.1705 30.1885 42.7036 32.3442 42.9086L30.5478 44.5488C27.9878 46.8656 25.5176 49.1004 23.8334 50.6586C22.8229 51.6017 22.8229 53.0984 23.8334 53.98L24.1478 54.308C25.1583 55.2307 26.8201 55.2307 27.8306 54.308L34.5 48.1983C37.0824 50.5151 39.5301 52.7498 41.2368 54.308C42.2473 55.2307 43.8866 55.2307 44.9196 54.308L45.2115 53.98C46.2445 53.0984 46.2445 51.6017 45.2115 50.6586L38.5196 44.5488L36.7456 42.8881C38.8789 42.7036 42.1799 42.15 44.6052 40.7353C47.4571 39.0746 48.7146 38.07 47.5918 36.0198ZM34.5 19.2692C37.5989 19.2692 40.114 21.5654 40.114 24.3743C40.114 27.2037 37.5989 29.4794 34.5 29.4794C31.4011 29.4794 28.886 27.2037 28.886 24.3743C28.886 21.5654 31.4011 19.2692 34.5 19.2692ZM34.5 34.7486C40.7877 34.7486 45.8627 30.115 45.8627 24.3743C45.8627 21.6229 44.6656 18.9841 42.5346 17.0386C40.4037 15.093 37.5136 14 34.5 14C31.4864 14 28.5963 15.093 26.4654 17.0386C24.3344 18.9841 23.1373 21.6229 23.1373 24.3743C23.1373 30.115 28.2123 34.7486 34.5 34.7486Z" fill="#D8D8D8"/>
</svg>
