<svg width="27" height="41" viewBox="0 0 27 41" fill="none" xmlns="http://www.w3.org/2000/svg">
<path d="M26.5918 22.0198C25.9631 20.8511 24.189 19.867 21.8312 21.5277C18.62 23.865 13.5 23.865 13.5 23.865C13.5 23.865 8.38004 23.865 5.16884 21.5277C2.81097 19.867 1.03695 20.8511 0.408181 22.0198C-0.714616 24.07 0.542916 25.0746 3.39482 26.7353C5.84252 28.1705 9.18846 28.7036 11.3442 28.9086L9.54775 30.5488C6.98777 32.8656 4.51762 35.1004 2.83342 36.6586C1.82291 37.6017 1.82291 39.0984 2.83342 39.98L3.14781 40.308C4.15832 41.2307 5.82006 41.2307 6.83058 40.308L13.5 34.1983C16.0824 36.5151 18.5301 38.7498 20.2368 40.308C21.2473 41.2307 22.8866 41.2307 23.9196 40.308L24.2115 39.98C25.2445 39.0984 25.2445 37.6017 24.2115 36.6586L17.5196 30.5488L15.7456 28.8881C17.8789 28.7036 21.1799 28.15 23.6052 26.7353C26.4571 25.0746 27.7146 24.07 26.5918 22.0198ZM13.5 5.26916C16.5989 5.26916 19.114 7.56545 19.114 10.3743C19.114 13.2037 16.5989 15.4794 13.5 15.4794C10.4011 15.4794 7.88601 13.2037 7.88601 10.3743C7.88601 7.56545 10.4011 5.26916 13.5 5.26916ZM13.5 20.7486C19.7877 20.7486 24.8627 16.115 24.8627 10.3743C24.8627 7.62286 23.6656 4.98412 21.5346 3.03856C19.4037 1.093 16.5136 0 13.5 0C10.4864 0 7.59627 1.093 5.46535 3.03856C3.33443 4.98412 2.13729 7.62286 2.13729 10.3743C2.13729 16.115 7.21233 20.7486 13.5 20.7486Z" fill="#D8D8D8"/>
</svg>
