
<svg width="0" height="0" class="hidden">

    <symbol width="14" height="14" viewBox="0 0 14 14" fill="none" xmlns="http://www.w3.org/2000/svg" id="ic_mute">
      <path d="M0 5.3465V8.6565C0 9.11163 0.35 9.484 0.777778 9.484H3.11111L5.67 12.2065C6.16 12.7278 7 12.3554 7 11.619V2.37577C7 1.6393 6.16 1.26692 5.67 1.78825L3.11111 4.519H0.777778C0.35 4.519 0 4.89137 0 5.3465ZM10.5 7.0015C10.5 5.53682 9.70667 4.27902 8.55556 3.66667V10.3281C9.70667 9.72398 10.5 8.46618 10.5 7.0015ZM8.55556 0.753872V0.919372C8.55556 1.23382 8.75 1.5069 9.02222 1.62275C11.0289 2.47507 12.4444 4.56865 12.4444 7.0015C12.4444 9.43435 11.0289 11.5279 9.02222 12.3803C8.74222 12.4961 8.55556 12.7692 8.55556 13.0836V13.2491C8.55556 13.7705 9.04556 14.1346 9.49667 13.9525C12.1333 12.885 14 10.1791 14 7.0015C14 3.8239 12.1333 1.11797 9.49667 0.0504962C9.04556 -0.139829 8.55556 0.232546 8.55556 0.753872Z" fill="#000"/>
    </symbol>

    <symbol xmlns="http://www.w3.org/2000/svg" viewBox="0 0 11 15" id="ic_play">
      <path d="M0 14.1767V0.822493C0 0.166916 0.689282 -0.224842 1.20458 0.139564L10.6547 6.81709C11.1151 7.14179 11.1151 7.85825 10.6547 8.18383L1.20458 14.8614C0.689282 15.224 0 14.8331 0 14.1767Z" fill="#000"></path>
    </symbol>

    <symbol xmlns="http://www.w3.org/2000/svg" viewBox="0 0 11 15" id="ic_pause">
      <rect x="7" width="4" height="15" rx="1" fill="#000"></rect>
      <rect width="4" height="15" rx="1" fill="#000"></rect>
    </symbol>



</svg>





