
<svg width="0" height="0" class="hidden">

    <symbol width="14" height="14" viewBox="0 0 14 14" fill="none" xmlns="http://www.w3.org/2000/svg" id="ic_mute">
      <path d="M0 5.3465V8.6565C0 9.11163 0.35 9.484 0.777778 9.484H3.11111L5.67 12.2065C6.16 12.7278 7 12.3554 7 11.619V2.37577C7 1.6393 6.16 1.26692 5.67 1.78825L3.11111 4.519H0.777778C0.35 4.519 0 4.89137 0 5.3465ZM10.5 7.0015C10.5 5.53682 9.70667 4.27902 8.55556 3.66667V10.3281C9.70667 9.72398 10.5 8.46618 10.5 7.0015ZM8.55556 0.753872V0.919372C8.55556 1.23382 8.75 1.5069 9.02222 1.62275C11.0289 2.47507 12.4444 4.56865 12.4444 7.0015C12.4444 9.43435 11.0289 11.5279 9.02222 12.3803C8.74222 12.4961 8.55556 12.7692 8.55556 13.0836V13.2491C8.55556 13.7705 9.04556 14.1346 9.49667 13.9525C12.1333 12.885 14 10.1791 14 7.0015C14 3.8239 12.1333 1.11797 9.49667 0.0504962C9.04556 -0.139829 8.55556 0.232546 8.55556 0.753872Z" fill="#000"/>
    </symbol>

    <symbol xmlns="http://www.w3.org/2000/svg" viewBox="0 0 11 15" id="ic_play">
      <path d="M0 14.1767V0.822493C0 0.166916 0.689282 -0.224842 1.20458 0.139564L10.6547 6.81709C11.1151 7.14179 11.1151 7.85825 10.6547 8.18383L1.20458 14.8614C0.689282 15.224 0 14.8331 0 14.1767Z" fill="#000"></path>
    </symbol>

    <symbol xmlns="http://www.w3.org/2000/svg" viewBox="0 0 11 15" id="ic_pause">
      <rect x="7" width="4" height="15" rx="1" fill="#000"></rect>
      <rect width="4" height="15" rx="1" fill="#000"></rect>
    </symbol>

    <symbol width="48" height="29" viewBox="0 0 48 29" fill="none" xmlns="http://www.w3.org/2000/svg" id="vk">
      <path fill-rule="evenodd" clip-rule="evenodd" d="M46.8701 2C47.2261 0.872001 46.8701 0.0519997 45.2951 0.0519997H40.0581C38.7371 0.0519997 38.1271 0.770001 37.771 1.538C37.771 1.538 35.077 8.09801 31.315 12.351C30.095 13.581 29.536 13.991 28.875 13.991C28.519 13.991 28.061 13.581 28.061 12.454V1.947C28.061 0.615001 27.655 0 26.536 0H18.3C17.486 0 16.978 0.615001 16.978 1.23C16.978 2.511 18.859 2.819 19.062 6.40601V14.2C19.062 15.891 18.762 16.2 18.096 16.2C16.317 16.2 11.996 9.58901 9.40401 2.056C8.90001 0.564 8.38801 0 7.06601 0H1.779C0.254 0 0 0.717001 0 1.486C0 2.87 1.779 9.83901 8.28601 19.063C12.607 25.363 18.758 28.749 24.299 28.749C27.655 28.749 28.061 27.98 28.061 26.699V21.933C28.061 20.396 28.366 20.14 29.434 20.14C30.196 20.14 31.569 20.549 34.67 23.573C38.2281 27.16 38.8381 28.8 40.8211 28.8H46.0571C47.5821 28.8 48.2941 28.031 47.8871 26.545C47.4301 25.059 45.7011 22.907 43.4641 20.345C42.2441 18.911 40.4141 17.322 39.8551 16.553C39.0931 15.528 39.2961 15.118 39.8551 14.196C39.8041 14.196 46.2101 5.07401 46.8701 1.996" fill="#D8D8D8"/>
    </symbol>

    <symbol width="27" height="41" viewBox="0 0 27 41" fill="none" xmlns="http://www.w3.org/2000/svg" id="ok">
      <path d="M26.5918 22.0198C25.9631 20.8511 24.189 19.867 21.8312 21.5277C18.62 23.865 13.5 23.865 13.5 23.865C13.5 23.865 8.38004 23.865 5.16884 21.5277C2.81097 19.867 1.03695 20.8511 0.408181 22.0198C-0.714616 24.07 0.542916 25.0746 3.39482 26.7353C5.84252 28.1705 9.18846 28.7036 11.3442 28.9086L9.54775 30.5488C6.98777 32.8656 4.51762 35.1004 2.83342 36.6586C1.82291 37.6017 1.82291 39.0984 2.83342 39.98L3.14781 40.308C4.15832 41.2307 5.82006 41.2307 6.83058 40.308L13.5 34.1983C16.0824 36.5151 18.5301 38.7498 20.2368 40.308C21.2473 41.2307 22.8866 41.2307 23.9196 40.308L24.2115 39.98C25.2445 39.0984 25.2445 37.6017 24.2115 36.6586L17.5196 30.5488L15.7456 28.8881C17.8789 28.7036 21.1799 28.15 23.6052 26.7353C26.4571 25.0746 27.7146 24.07 26.5918 22.0198ZM13.5 5.26916C16.5989 5.26916 19.114 7.56545 19.114 10.3743C19.114 13.2037 16.5989 15.4794 13.5 15.4794C10.4011 15.4794 7.88601 13.2037 7.88601 10.3743C7.88601 7.56545 10.4011 5.26916 13.5 5.26916ZM13.5 20.7486C19.7877 20.7486 24.8627 16.115 24.8627 10.3743C24.8627 7.62286 23.6656 4.98412 21.5346 3.03856C19.4037 1.093 16.5136 0 13.5 0C10.4864 0 7.59627 1.093 5.46535 3.03856C3.33443 4.98412 2.13729 7.62286 2.13729 10.3743C2.13729 16.115 7.21233 20.7486 13.5 20.7486Z" fill="#D8D8D8"/>
    </symbol>

    <symbol width="39" height="32" viewBox="0 0 39 32" fill="none" xmlns="http://www.w3.org/2000/svg" id="tg">
      <path d="M35.8339 0.363699L1.28176 13.4196C-0.108676 14.0276 -0.578961 15.2451 0.945694 15.9059L9.80981 18.6662L31.2421 5.68722C32.4124 4.87243 33.6104 5.0897 32.5795 5.98602L14.172 22.3172L13.5938 29.2285C14.1294 30.2956 15.11 30.3006 15.7355 29.7702L20.8282 25.0484L29.5503 31.4482C31.5761 32.6233 32.6783 31.865 33.1142 29.7111L38.8351 3.16732C39.4291 0.516069 38.4161 -0.652103 35.8339 0.363699Z" fill="#D8D8D8"/>
    </symbol>

    <symbol width="33" height="33" viewBox="0 0 33 33" fill="none" xmlns="http://www.w3.org/2000/svg" id="insta">
      <path d="M16.5 0C20.983 0 21.5424 0.0164999 23.3013 0.0989999C25.0585 0.1815 26.2548 0.45705 27.3075 0.86625C28.3965 1.28535 29.3139 1.85295 30.2313 2.7687C31.0703 3.59353 31.7195 4.59127 32.1338 5.6925C32.5413 6.74355 32.8185 7.94145 32.901 9.6987C32.9785 11.4576 33 12.0169 33 16.5C33 20.983 32.9835 21.5424 32.901 23.3013C32.8185 25.0585 32.5413 26.2548 32.1338 27.3075C31.7207 28.4093 31.0714 29.4073 30.2313 30.2313C29.4062 31.07 28.4086 31.7192 27.3075 32.1338C26.2564 32.5413 25.0585 32.8185 23.3013 32.901C21.5424 32.9785 20.983 33 16.5 33C12.0169 33 11.4576 32.9835 9.6987 32.901C7.94145 32.8185 6.7452 32.5413 5.6925 32.1338C4.59084 31.7204 3.59292 31.0711 2.7687 30.2313C1.92952 29.4066 1.28029 28.4088 0.86625 27.3075C0.45705 26.2564 0.1815 25.0585 0.0989999 23.3013C0.0214499 21.5424 0 20.983 0 16.5C0 12.0169 0.0164999 11.4576 0.0989999 9.6987C0.1815 7.9398 0.45705 6.7452 0.86625 5.6925C1.27914 4.5906 1.92853 3.59258 2.7687 2.7687C3.59316 1.92923 4.59101 1.27995 5.6925 0.86625C6.7452 0.45705 7.9398 0.1815 9.6987 0.0989999C11.4576 0.0214499 12.0169 0 16.5 0ZM16.5 8.25C14.312 8.25 12.2135 9.11919 10.6664 10.6664C9.11919 12.2135 8.25 14.312 8.25 16.5C8.25 18.688 9.11919 20.7865 10.6664 22.3336C12.2135 23.8808 14.312 24.75 16.5 24.75C18.688 24.75 20.7865 23.8808 22.3336 22.3336C23.8808 20.7865 24.75 18.688 24.75 16.5C24.75 14.312 23.8808 12.2135 22.3336 10.6664C20.7865 9.11919 18.688 8.25 16.5 8.25ZM27.225 7.8375C27.225 7.29049 27.0077 6.76589 26.6209 6.37909C26.2341 5.9923 25.7095 5.775 25.1625 5.775C24.6155 5.775 24.0909 5.9923 23.7041 6.37909C23.3173 6.76589 23.1 7.29049 23.1 7.8375C23.1 8.38451 23.3173 8.90911 23.7041 9.29591C24.0909 9.6827 24.6155 9.9 25.1625 9.9C25.7095 9.9 26.2341 9.6827 26.6209 9.29591C27.0077 8.90911 27.225 8.38451 27.225 7.8375ZM16.5 11.55C17.8128 11.55 19.0719 12.0715 20.0002 12.9998C20.9285 13.9281 21.45 15.1872 21.45 16.5C21.45 17.8128 20.9285 19.0719 20.0002 20.0002C19.0719 20.9285 17.8128 21.45 16.5 21.45C15.1872 21.45 13.9281 20.9285 12.9998 20.0002C12.0715 19.0719 11.55 17.8128 11.55 16.5C11.55 15.1872 12.0715 13.9281 12.9998 12.9998C13.9281 12.0715 15.1872 11.55 16.5 11.55Z" fill="#D8D8D8"/>
    </symbol>

    <symbol width="41" height="29" viewBox="0 0 41 29" fill="none" xmlns="http://www.w3.org/2000/svg" id="yotube">
      <path fill-rule="evenodd" clip-rule="evenodd" d="M20.1875 0.166656C21.9109 0.166656 23.6786 0.206073 25.3918 0.270573L27.4155 0.356573L29.3525 0.458698L31.1666 0.56799L32.8235 0.682657C34.6215 0.804987 36.3134 1.48702 37.6015 2.60877C38.8897 3.73052 39.6915 5.22012 39.866 6.81553L39.9467 7.57699L40.0978 9.20741C40.2389 10.8969 40.3438 12.7388 40.3438 14.5C40.3438 16.2612 40.2389 18.103 40.0978 19.7926L39.9467 21.423C39.9205 21.6846 39.8943 21.9372 39.866 22.1844C39.6915 23.7801 38.8893 25.27 37.6008 26.3918C36.3122 27.5135 34.6198 28.1954 32.8214 28.3173L31.1686 28.4302L29.3546 28.5413L27.4155 28.6434L25.3918 28.7294C23.6581 28.7964 21.9229 28.831 20.1875 28.8333C18.4521 28.831 16.7169 28.7964 14.9832 28.7294L12.9595 28.6434L11.0225 28.5413L9.20839 28.4302L7.55155 28.3173C5.75351 28.195 4.0616 27.513 2.77345 26.3912C1.48531 25.2695 0.683454 23.7799 0.508953 22.1844L0.428328 21.423L0.277156 19.7926C0.123037 18.0316 0.0410137 16.2663 0.03125 14.5C0.03125 12.7388 0.136062 10.8969 0.277156 9.20741L0.428328 7.57699C0.454531 7.31541 0.480734 7.06278 0.508953 6.81553C0.683387 5.22041 1.48495 3.73103 2.77268 2.60931C4.06042 1.4876 5.75185 0.80539 7.54953 0.682657L9.20436 0.56799L11.0184 0.458698L12.9575 0.356573L14.9811 0.270573C16.7156 0.203624 18.4514 0.168977 20.1875 0.166656ZM16.1562 10.1552V18.8448C16.1562 19.6725 17.1641 20.1885 17.9703 19.7764L26.4359 15.4317C26.6202 15.3374 26.7732 15.2017 26.8796 15.0381C26.986 14.8745 27.042 14.6889 27.042 14.5C27.042 14.3111 26.986 14.1255 26.8796 13.9619C26.7732 13.7983 26.6202 13.6626 26.4359 13.5683L17.9703 9.22532C17.7864 9.13094 17.5778 9.08127 17.3654 9.0813C17.1531 9.08133 16.9445 9.13106 16.7606 9.2255C16.5767 9.31993 16.4241 9.45573 16.318 9.61925C16.2119 9.78277 16.1561 9.96823 16.1562 10.157V10.1552Z" fill="#D8D8D8"/>
    </symbol>


</svg>





