<svg width="48" height="29" viewBox="0 0 48 29" fill="none" xmlns="http://www.w3.org/2000/svg">
<path fill-rule="evenodd" clip-rule="evenodd" d="M46.8701 2C47.2261 0.872001 46.8701 0.0519997 45.2951 0.0519997H40.0581C38.7371 0.0519997 38.1271 0.770001 37.771 1.538C37.771 1.538 35.077 8.09801 31.315 12.351C30.095 13.581 29.536 13.991 28.875 13.991C28.519 13.991 28.061 13.581 28.061 12.454V1.947C28.061 0.615001 27.655 0 26.536 0H18.3C17.486 0 16.978 0.615001 16.978 1.23C16.978 2.511 18.859 2.819 19.062 6.40601V14.2C19.062 15.891 18.762 16.2 18.096 16.2C16.317 16.2 11.996 9.58901 9.40401 2.056C8.90001 0.564 8.38801 0 7.06601 0H1.779C0.254 0 0 0.717001 0 1.486C0 2.87 1.779 9.83901 8.28601 19.063C12.607 25.363 18.758 28.749 24.299 28.749C27.655 28.749 28.061 27.98 28.061 26.699V21.933C28.061 20.396 28.366 20.14 29.434 20.14C30.196 20.14 31.569 20.549 34.67 23.573C38.2281 27.16 38.8381 28.8 40.8211 28.8H46.0571C47.5821 28.8 48.2941 28.031 47.8871 26.545C47.4301 25.059 45.7011 22.907 43.4641 20.345C42.2441 18.911 40.4141 17.322 39.8551 16.553C39.0931 15.528 39.2961 15.118 39.8551 14.196C39.8041 14.196 46.2101 5.07401 46.8701 1.996" fill="#D8D8D8"/>
</svg>
