<svg width="70" height="70" viewBox="0 0 70 70" fill="none" xmlns="http://www.w3.org/2000/svg">
<rect width="70" height="70" rx="15" fill="#0057FF"/>
<path fill-rule="evenodd" clip-rule="evenodd" d="M57.8701 23C58.2261 21.872 57.8701 21.052 56.2951 21.052H51.0581C49.7371 21.052 49.1271 21.77 48.771 22.538C48.771 22.538 46.077 29.098 42.315 33.351C41.095 34.581 40.536 34.991 39.875 34.991C39.519 34.991 39.061 34.581 39.061 33.454V22.947C39.061 21.615 38.655 21 37.536 21H29.3C28.486 21 27.978 21.615 27.978 22.23C27.978 23.511 29.859 23.819 30.062 27.406V35.2C30.062 36.891 29.762 37.2 29.096 37.2C27.317 37.2 22.996 30.589 20.404 23.056C19.9 21.564 19.388 21 18.066 21H12.779C11.254 21 11 21.717 11 22.486C11 23.87 12.779 30.839 19.286 40.063C23.607 46.363 29.758 49.749 35.299 49.749C38.655 49.749 39.061 48.98 39.061 47.699V42.933C39.061 41.396 39.366 41.14 40.434 41.14C41.196 41.14 42.569 41.549 45.67 44.573C49.2281 48.16 49.8381 49.8 51.8211 49.8H57.0571C58.5821 49.8 59.2941 49.031 58.8871 47.545C58.4301 46.059 56.7011 43.907 54.4641 41.345C53.2441 39.911 51.4141 38.322 50.8551 37.553C50.0931 36.528 50.2961 36.118 50.8551 35.196C50.8041 35.196 57.2101 26.074 57.8701 22.996" fill="#fff"/>
</svg>
