<svg width="70" height="70" viewBox="0 0 70 70" fill="none" xmlns="http://www.w3.org/2000/svg">
<rect width="70" height="70" rx="15" fill="#0057FF"/>
<path fill-rule="evenodd" clip-rule="evenodd" d="M35.1875 20.1667C36.9109 20.1667 38.6786 20.2061 40.3918 20.2706L42.4155 20.3566L44.3525 20.4587L46.1666 20.568L47.8235 20.6827C49.6215 20.805 51.3134 21.487 52.6015 22.6088C53.8897 23.7305 54.6915 25.2201 54.866 26.8155L54.9467 27.577L55.0978 29.2074C55.2389 30.8969 55.3438 32.7388 55.3438 34.5C55.3438 36.2612 55.2389 38.103 55.0978 39.7926L54.9467 41.423C54.9205 41.6846 54.8943 41.9372 54.866 42.1844C54.6915 43.7801 53.8893 45.27 52.6008 46.3918C51.3122 47.5135 49.6198 48.1954 47.8214 48.3173L46.1686 48.4302L44.3546 48.5413L42.4155 48.6434L40.3918 48.7294C38.6581 48.7964 36.9229 48.831 35.1875 48.8333C33.4521 48.831 31.7169 48.7964 29.9832 48.7294L27.9595 48.6434L26.0225 48.5413L24.2084 48.4302L22.5515 48.3173C20.7535 48.195 19.0616 47.513 17.7735 46.3912C16.4853 45.2695 15.6835 43.7799 15.509 42.1844L15.4283 41.423L15.2772 39.7926C15.123 38.0316 15.041 36.2663 15.0312 34.5C15.0312 32.7388 15.1361 30.8969 15.2772 29.2074L15.4283 27.577C15.4545 27.3154 15.4807 27.0628 15.509 26.8155C15.6834 25.2204 16.485 23.731 17.7727 22.6093C19.0604 21.4876 20.7519 20.8054 22.5495 20.6827L24.2044 20.568L26.0184 20.4587L27.9575 20.3566L29.9811 20.2706C31.7156 20.2036 33.4514 20.169 35.1875 20.1667ZM31.1562 30.1552V38.8448C31.1562 39.6725 32.1641 40.1885 32.9703 39.7764L41.4359 35.4317C41.6202 35.3374 41.7732 35.2017 41.8796 35.0381C41.986 34.8745 42.042 34.6889 42.042 34.5C42.042 34.3111 41.986 34.1255 41.8796 33.9619C41.7732 33.7983 41.6202 33.6626 41.4359 33.5683L32.9703 29.2253C32.7864 29.1309 32.5778 29.0813 32.3654 29.0813C32.1531 29.0813 31.9445 29.1311 31.7606 29.2255C31.5767 29.3199 31.4241 29.4557 31.318 29.6192C31.2119 29.7828 31.1561 29.9682 31.1562 30.157V30.1552Z" fill="#fff"/>
</svg>
