<svg width="41" height="29" viewBox="0 0 41 29" fill="none" xmlns="http://www.w3.org/2000/svg">
<path fill-rule="evenodd" clip-rule="evenodd" d="M20.1875 0.166656C21.9109 0.166656 23.6786 0.206073 25.3918 0.270573L27.4155 0.356573L29.3525 0.458698L31.1666 0.56799L32.8235 0.682657C34.6215 0.804987 36.3134 1.48702 37.6015 2.60877C38.8897 3.73052 39.6915 5.22012 39.866 6.81553L39.9467 7.57699L40.0978 9.20741C40.2389 10.8969 40.3438 12.7388 40.3438 14.5C40.3438 16.2612 40.2389 18.103 40.0978 19.7926L39.9467 21.423C39.9205 21.6846 39.8943 21.9372 39.866 22.1844C39.6915 23.7801 38.8893 25.27 37.6008 26.3918C36.3122 27.5135 34.6198 28.1954 32.8214 28.3173L31.1686 28.4302L29.3546 28.5413L27.4155 28.6434L25.3918 28.7294C23.6581 28.7964 21.9229 28.831 20.1875 28.8333C18.4521 28.831 16.7169 28.7964 14.9832 28.7294L12.9595 28.6434L11.0225 28.5413L9.20839 28.4302L7.55155 28.3173C5.75351 28.195 4.0616 27.513 2.77345 26.3912C1.48531 25.2695 0.683454 23.7799 0.508953 22.1844L0.428328 21.423L0.277156 19.7926C0.123037 18.0316 0.0410137 16.2663 0.03125 14.5C0.03125 12.7388 0.136062 10.8969 0.277156 9.20741L0.428328 7.57699C0.454531 7.31541 0.480734 7.06278 0.508953 6.81553C0.683387 5.22041 1.48495 3.73103 2.77268 2.60931C4.06042 1.4876 5.75185 0.80539 7.54953 0.682657L9.20436 0.56799L11.0184 0.458698L12.9575 0.356573L14.9811 0.270573C16.7156 0.203624 18.4514 0.168977 20.1875 0.166656ZM16.1562 10.1552V18.8448C16.1562 19.6725 17.1641 20.1885 17.9703 19.7764L26.4359 15.4317C26.6202 15.3374 26.7732 15.2017 26.8796 15.0381C26.986 14.8745 27.042 14.6889 27.042 14.5C27.042 14.3111 26.986 14.1255 26.8796 13.9619C26.7732 13.7983 26.6202 13.6626 26.4359 13.5683L17.9703 9.22532C17.7864 9.13094 17.5778 9.08127 17.3654 9.0813C17.1531 9.08133 16.9445 9.13106 16.7606 9.2255C16.5767 9.31993 16.4241 9.45573 16.318 9.61925C16.2119 9.78277 16.1561 9.96823 16.1562 10.157V10.1552Z" fill="#D8D8D8"/>
</svg>
